:SAMPLES-PER-SECOND 30
:FULLY-SPECIFIED
:DEGREES
37
root  3.30007 36.9295 -2.78396 -49.4814 76.0138 -63.1013
RightUpLeg  -30.036 -0.32695 17.318
RightLeg  31.5543 6.37251 -2.27289
RightFoot  -13.0158 0.00954999 -5.45275
RightToes  -2.91039e-010 -3.18055e-015 8.94531e-016
Spine  7.57447 0.190104 14.9438
Spine1  25.8345 1.02343 4.23063
HEad  -26.1724 3.9163 -1.68544
LeftShoulder1  0 0 -2.47967e-037
LeftArm  27.2627 42.0138 -90.7707
LeftForeArm  -50.4297 -26.0074 16.6236
LeftHand  0.456128 3.96645 2.72855
RightShoulder  -2.48481e-017 0 -8.08114e-019
RightArm  4.60999 -31.2082 79.8811
RightForeArm  -33.0798 45.6783 -42.5717
RightHand  2.37145 -13.2596 -17.2119
LeftUpLeg  -12.0536 4.36299 7.82629
LeftLeg  113.891 -19.5183 11.0562
LeftFoot  14.3445 0.263561 -0.89095
LeftToes  -1.92813e-010 7.1836e-011 -1.0882e-011
38
root  7.566 36.5518 -2.7666 -40.9331 72.041 -55.9598
RightUpLeg  -24.0161 2.30116 17.7854
RightLeg  33.0041 9.01016 -0.573463
RightFoot  -21.6758 -0.439122 -5.96396
RightToes  -2.91039e-010 -3.18055e-015 8.94531e-016
Spine  9.30054 2.95958 19.8832
Spine1  21.931 5.89907 1.90555
HEad  -27.8988 1.48912 -1.673
LeftShoulder1  0 0 -2.47967e-037
LeftArm  34.8918 56.3116 -85.528
LeftForeArm  -48.8815 -25.4898 15.8079
LeftHand  0.524877 4.3151 2.28224
RightShoulder  -2.48481e-017 0 -8.08114e-019
RightArm  3.33607 -16.7383 85.1495
RightForeArm  -36.4036 52.9976 -54.6082
RightHand  2.35777 -13.4086 -16.4112
LeftUpLeg  -29.9843 3.75797 9.65714
LeftLeg  132.188 -16.6568 1.79379
LeftFoot  10.8445 -0.78392 3.80119
LeftToes  -1.92813e-010 7.1836e-011 -1.0882e-011
39
root  12.8974 36.6819 -2.73251 -34.6734 71.6548 -50.5765
RightUpLeg  -13.6561 2.47874 14.2623
RightLeg  27.536 11.3495 1.42935
RightFoot  -23.004 0.0986596 1.05643
RightToes  -2.91039e-010 -3.18055e-015 8.94531e-016
Spine  9.31765 5.17104 22.5971
Spine1  16.6725 9.79725 -2.81048
HEad  -27.8418 -2.16958 1.36845
LeftShoulder1  0 0 -2.47967e-037
LeftArm  48.291 68.8106 -66.1053
LeftForeArm  -42.9192 -28.6693 18.3109
LeftHand  0.587519 4.41145 0.532472
RightShoulder  -2.48481e-017 0 -8.08114e-019
RightArm  3.0021 -7.67931 87.6538
RightForeArm  -43.6251 58.4906 -70.2956
RightHand  2.20518 -13.1288 -15.0883
LeftUpLeg  -47.6639 0.938576 10.2266
LeftLeg  134.545 -12.2159 -2.80717
LeftFoot  8.00794 -0.774684 4.22421
LeftToes  -1.92813e-010 7.1836e-011 -1.0882e-011
40
root  18.8525 37.2369 -2.48477 -21.556 74.1534 -37.4752
RightUpLeg  -0.100515 -0.278552 6.50463
RightLeg  15.5161 9.94767 1.2072
RightFoot  -8.88878 -0.414269 11.234
RightToes  -2.91039e-010 -3.18055e-015 8.94531e-016
Spine  7.67285 7.2178 19.595
Spine1  11.7144 12.1116 -9.43927
HEad  -24.6979 -6.07146 5.98131
LeftShoulder1  0 0 -2.47967e-037
LeftArm  78.9774 74.4011 -24.8702
LeftForeArm  -37.9959 -32.7149 20.2089
LeftHand  0.647236 4.52191 -1.15981
RightShoulder  -2.48481e-017 0 -8.08114e-019
RightArm  3.87053 -4.9876 87.5384
RightForeArm  -59.0602 61.7032 -92.3376
RightHand  2.16744 -13.3247 -13.764
LeftUpLeg  -59.3507 -0.276151 6.31373
LeftLeg  123.598 -14.7867 0.610721
LeftFoot  5.50078 -0.218786 1.41297
LeftToes  -1.92813e-010 7.1836e-011 -1.0882e-011
41
root  24.5904 37.9681 -2.21425 -7.86273 75.6129 -23.7868
RightUpLeg  10.2114 -3.71537 -0.86724
RightLeg  8.5908 6.95604 1.11112
RightFoot  10.3102 -2.81609 13.4988
RightToes  -2.91039e-010 -3.18055e-015 8.94531e-016
Spine  5.46353 8.90169 14.014
Spine1  8.40853 12.8534 -12.3539
HEad  -19.4194 -8.75943 8.11034
LeftShoulder1  0 0 -2.47967e-037
LeftArm  106.84 73.8219 13.1061
LeftForeArm  -36.2582 -35.5917 21.5822
LeftHand  0.676699 4.81362 -0.83991
RightShoulder  -2.48481e-017 0 -8.08114e-019
RightArm  6.8346 -6.69638 85.9059
RightForeArm  -76.042 61.2525 -113.476
RightHand  2.19781 -13.6045 -13.2667
LeftUpLeg  -65.944 -0.0193267 2.08262
LeftLeg  104.847 -15.9267 7.68896
LeftFoot  1.99116 -0.261408 1.9778
LeftToes  -1.92813e-010 7.1836e-011 -1.0882e-011
42
root  30.0095 38.6278 -2.01748 -5.28802 76.8596 -20.9688
RightUpLeg  14.9699 -3.06905 -2.45159
RightLeg  14.7423 8.27929 -0.120083
RightFoot  18.0211 -2.93699 10.4884
RightToes  -2.91039e-010 -3.18055e-015 8.94531e-016
Spine  3.17777 9.46835 9.12803
Spine1  8.15638 12.1471 -10.4115
HEad  -15.208 -9.72129 7.33931
LeftShoulder1  0 0 -2.47967e-037
LeftArm  116.919 73.5921 30.5264
LeftForeArm  -34.5665 -37.6958 22.6852
LeftHand  0.633481 4.74701 0.598589
RightShoulder  -2.48481e-017 0 -8.08114e-019
RightArm  10.1896 -10.8768 84.2535
RightForeArm  -84.8154 59.6035 -124.542
RightHand  2.10832 -13.3809 -12.6418
LeftUpLeg  -67.2742 0.758558 0.30078
LeftLeg  83.0509 -12.0645 9.97533
LeftFoot  -1.69966 -0.150605 1.41949
LeftToes  -1.92813e-010 7.1836e-011 -1.0882e-011
43
root  34.8582 38.8808 -1.89782 -7.51068 79.7308 -22.1361
RightUpLeg  15.3608 0.156613 -0.089861
RightLeg  33.1269 11.0315 0.899055
RightFoot  16.6534 -3.10905 11.634
RightToes  -2.91039e-010 -3.18055e-015 8.94531e-016
Spine  1.60235 8.7064 5.21785
Spine1  13.283 10.5253 -8.42227
HEad  -14.3947 -9.43912 6.86587
LeftShoulder1  0 0 -2.47967e-037
LeftArm  106.364 76.0229 23.6143
LeftForeArm  -33.2414 -39.5282 23.6969
LeftHand  0.555609 4.24483 0.823207
RightShoulder  -2.48481e-017 0 -8.08114e-019
RightArm  10.8951 -17.4143 83.9698
RightForeArm  -84.357 59.5934 -124.495
RightHand  1.95417 -12.9961 -11.4577
LeftUpLeg  -63.1971 -0.240373 -1.05732
LeftLeg  58.921 -8.11885 6.89524
LeftFoot  -3.85227 0.177519 -2.26406
LeftToes  -1.92813e-010 7.1836e-011 -1.0882e-011
44
root  39.719 38.5782 -1.93884 -16.5634 82.6372 -28.987
RightUpLeg  14.8923 -1.19304 1.35452
RightLeg  55.6255 12.9063 4.01232
RightFoot  15.3527 -3.56995 13.9809
RightToes  -2.91039e-010 -3.18055e-015 8.94531e-016
Spine  -0.470632 7.44863 4.70919
Spine1  21.7682 8.79342 -8.08486
HEad  -15.8117 -7.69205 7.37459
LeftShoulder1  0 0 -2.47967e-037
LeftArm  67.2285 76.3213 -14.4863
LeftForeArm  -34.2807 -41.2547 24.556
LeftHand  0.556988 4.13199 0.226266
RightShoulder  -2.48481e-017 0 -8.08114e-019
RightArm  8.25184 -25.2589 85.5116
RightForeArm  -76.2311 61.2559 -113.512
RightHand  1.88495 -12.7384 -11.17
LeftUpLeg  -53.4297 -1.62131 -2.17856
LeftLeg  35.2527 -6.25776 3.24171
LeftFoot  -3.65376 0.363485 -4.39017
LeftToes  -1.92813e-010 7.1836e-011 -1.0882e-011
45
root  44.967 38.0443 -2.05509 -29.3685 84.8245 -39.2363
RightUpLeg  12.6215 -3.78503 0.696906
RightLeg  78.0288 10.8732 0.406036
RightFoot  15.3804 -3.14958 12.3326
RightToes  -2.91039e-010 -3.18055e-015 8.94531e-016
Spine  -2.86581 5.62598 4.2346
Spine1  28.6852 6.92367 -7.48652
HEad  -16.8677 -4.50992 6.97596
LeftShoulder1  0 0 -2.47967e-037
LeftArm  33.754 68.9788 -47.876
LeftForeArm  -36.4528 -43.7339 25.8368
LeftHand  0.589905 4.61291 1.56593
RightShoulder  -2.48481e-017 0 -8.08114e-019
RightArm  6.16067 -32.5416 86.9705
RightForeArm  -62.6431 61.8729 -92.8207
RightHand  2.10386 -13.5463 -12.0273
LeftUpLeg  -42.6229 -3.36393 -3.19504
LeftLeg  21.7463 -4.4114 1.94791
LeftFoot  -1.01761 0.226751 -2.1192
LeftToes  -1.92813e-010 7.1836e-011 -1.0882e-011
46
root  49.7763 37.2654 -2.17715 -27.7345 87.5192 -35.9475
RightUpLeg  5.10689 -5.58251 -1.58697
RightLeg  100.898 13.3463 -8.68757
RightFoot  13.4214 -2.2626 9.55057
RightToes  -2.91039e-010 -3.18055e-015 8.94531e-016
Spine  -2.4812 3.66204 -0.580689
Spine1  30.5832 3.8407 -5.08826
HEad  -16.9915 -1.59556 6.31141
LeftShoulder1  0 0 -2.47967e-037
LeftArm  17.1791 58.0047 -63.8445
LeftForeArm  -36.7647 -48.119 28.6988
LeftHand  0.538137 4.76517 4.66942
RightShoulder  -2.48481e-017 0 -8.08114e-019
RightArm  8.2878 -39.4456 86.3667
RightForeArm  -41.9553 57.2163 -65.4915
RightHand  2.12254 -13.4666 -12.5757
LeftUpLeg  -37.5729 -6.88314 -5.35201
LeftLeg  25.6006 -1.92086 3.97403
LeftFoot  -1.04891 -0.463349 4.2513
LeftToes  -1.92813e-010 7.1836e-011 -1.0882e-011
